HIERARCHY
ROOT Hips
{
  OFFSET 126.96 91.9987 35.2002
  CHANNELS 6 Xposition Yposition Zposition Zrotation Xrotation Yrotation
  JOINT RightUpLeg
  {
    OFFSET -9.21262 -1.62705 0.0892923
    CHANNELS 3 Zrotation Xrotation Yrotation
    JOINT RightLeg
    {
      OFFSET 0.0960154 -41.8606 0.153467
      CHANNELS 3 Zrotation Xrotation Yrotation
      JOINT RightFoot
      {
        OFFSET 1.33859 -39.7491 3.70458
        CHANNELS 3 Zrotation Xrotation Yrotation
        End Site
        {
          OFFSET 0 -7.69 17.5
        }
      }
    }
  }
  JOINT LeftUpLeg
  {
    OFFSET 9.28909 -1.62806 0.0108209
    CHANNELS 3 Zrotation Xrotation Yrotation
    JOINT LeftLeg
    {
      OFFSET 0.0929201 -41.8886 0.0218006
      CHANNELS 3 Zrotation Xrotation Yrotation
      JOINT LeftFoot
      {
        OFFSET -1.57781 -41.3397 -3.31563
        CHANNELS 3 Zrotation Xrotation Yrotation
        End Site
        {
          OFFSET 0 -7.69 17.5
        }
      }
    }
  }
  JOINT Spine
  {
    OFFSET 0.0128959 14.3037 0.0259321
    CHANNELS 3 Zrotation Xrotation Yrotation
    JOINT Spine1
    {
      OFFSET 0.0143034 9.71252 0.015398
      CHANNELS 3 Zrotation Xrotation Yrotation
      JOINT Spine2
      {
        OFFSET 0.0468817 10.117 -0.0314137
        CHANNELS 3 Zrotation Xrotation Yrotation
        JOINT Spine3
        {
          OFFSET 0.0102655 9.71178 0.00221616
          CHANNELS 3 Zrotation Xrotation Yrotation
          JOINT Neck
          {
            OFFSET -0.0402596 10.3794 0.0231037
            CHANNELS 3 Zrotation Xrotation Yrotation
            JOINT Head
            {
              OFFSET -0.03453 9.49168 0.0708427
              CHANNELS 3 Zrotation Xrotation Yrotation
              End Site
              {
                OFFSET 0 15.95 0
              }
            }
          }
          JOINT RightShoulder
          {
            OFFSET -3.17991 6.93495 0.0309862
            CHANNELS 3 Zrotation Xrotation Yrotation
            JOINT RightArm
            {
              OFFSET -12.8253 0.0342167 0.035901
              CHANNELS 3 Zrotation Xrotation Yrotation
              JOINT RightForeArm
              {
                OFFSET -26.4423 -0.000685918 0.00421057
                CHANNELS 3 Zrotation Xrotation Yrotation
                JOINT RightHand
                {
                  OFFSET -25.9842 -0.0662606 -0.0268032
                  CHANNELS 3 Zrotation Xrotation Yrotation
                  JOINT RightHandThumb1
                  {
                    OFFSET -2.48905 0.190105 3.12053
                    CHANNELS 3 Zrotation Xrotation Yrotation
                    JOINT RightHandThumb2
                    {
                      OFFSET -3.68274 0 0
                      CHANNELS 3 Zrotation Xrotation Yrotation
                      JOINT RightHandThumb3
                      {
                        OFFSET -2.55832 0 0
                        CHANNELS 3 Zrotation Xrotation Yrotation
                        End Site
                        {
                          OFFSET -2.194 0 0
                        }
                      }
                    }
                  }
                  JOINT RightInHandIndex
                  {
                    OFFSET -3.22368 0.508421 1.97842
                    CHANNELS 3 Zrotation Xrotation Yrotation
                    JOINT RightHandIndex1
                    {
                      OFFSET -5.21684 -0.091368 0.999158
                      CHANNELS 3 Zrotation Xrotation Yrotation
                      JOINT RightHandIndex2
                      {
                        OFFSET -3.61937 0 0
                        CHANNELS 3 Zrotation Xrotation Yrotation
                        JOINT RightHandIndex3
                        {
                          OFFSET -2.0521 0 0
                          CHANNELS 3 Zrotation Xrotation Yrotation
                          End Site
                          {
                            OFFSET -1.805 0 0
                          }
                        }
                      }
                    }
                  }
                  JOINT RightInHandMiddle
                  {
                    OFFSET -3.38211 0.517263 0.756737
                    CHANNELS 3 Zrotation Xrotation Yrotation
                    JOINT RightHandMiddle1
                    {
                      OFFSET -5.17411 -0.084 0.313895
                      CHANNELS 3 Zrotation Xrotation Yrotation
                      JOINT RightHandMiddle2
                      {
                        OFFSET -3.94947 0 0
                        CHANNELS 3 Zrotation Xrotation Yrotation
                        JOINT RightHandMiddle3
                        {
                          OFFSET -2.47579 0 0
                          CHANNELS 3 Zrotation Xrotation Yrotation
                          End Site
                          {
                            OFFSET -1.975 0 0
                          }
                        }
                      }
                    }
                  }
                  JOINT RightInHandRing
                  {
                    OFFSET -3.36516 0.537895 -0.128947
                    CHANNELS 3 Zrotation Xrotation Yrotation
                    JOINT RightHandRing1
                    {
                      OFFSET -4.63474 -0.022105 -0.478947
                      CHANNELS 3 Zrotation Xrotation Yrotation
                      JOINT RightHandRing2
                      {
                        OFFSET -3.44238 0 0
                        CHANNELS 3 Zrotation Xrotation Yrotation
                        JOINT RightHandRing3
                        {
                          OFFSET -2.3881 0 0
                          CHANNELS 3 Zrotation Xrotation Yrotation
                          End Site
                          {
                            OFFSET -1.857 0 0
                          }
                        }
                      }
                    }
                  }
                  JOINT RightInHandPinky
                  {
                    OFFSET -3.16105 0.469368 -1.20179
                    CHANNELS 3 Zrotation Xrotation Yrotation
                    JOINT RightHandPinky1
                    {
                      OFFSET -4.14105 -0.022105 -1.09053
                      CHANNELS 3 Zrotation Xrotation Yrotation
                      JOINT RightHandPinky2
                      {
                        OFFSET -2.75653 0 0
                        CHANNELS 3 Zrotation Xrotation Yrotation
                        JOINT RightHandPinky3
                        {
                          OFFSET -1.74189 0 0
                          CHANNELS 3 Zrotation Xrotation Yrotation
                          End Site
                          {
                            OFFSET -1.645 0 0
                          }
                        }
                      }
                    }
                  }
                }
              }
            }
          }
          JOINT LeftShoulder
          {
            OFFSET 3.21113 6.90952 -0.0469957
            CHANNELS 3 Zrotation Xrotation Yrotation
            JOINT LeftArm
            {
              OFFSET 12.7919 -0.0331125 -0.0859637
              CHANNELS 3 Zrotation Xrotation Yrotation
              JOINT LeftForeArm
              {
                OFFSET 26.4755 -0.0026531 -0.0242133
                CHANNELS 3 Zrotation Xrotation Yrotation
                JOINT LeftHand
                {
                  OFFSET 25.9936 -0.03295 -0.105102
                  CHANNELS 3 Zrotation Xrotation Yrotation
                  JOINT LeftHandThumb1
                  {
                    OFFSET 2.48905 0.190105 3.12053
                    CHANNELS 3 Zrotation Xrotation Yrotation
                    JOINT LeftHandThumb2
                    {
                      OFFSET 3.68274 0 0
                      CHANNELS 3 Zrotation Xrotation Yrotation
                      JOINT LeftHandThumb3
                      {
                        OFFSET 2.55832 0 0
                        CHANNELS 3 Zrotation Xrotation Yrotation
                        End Site
                        {
                          OFFSET 2.194 0 0
                        }
                      }
                    }
                  }
                  JOINT LeftInHandIndex
                  {
                    OFFSET 3.22368 0.508421 1.97842
                    CHANNELS 3 Zrotation Xrotation Yrotation
                    JOINT LeftHandIndex1
                    {
                      OFFSET 5.21684 -0.091368 0.999158
                      CHANNELS 3 Zrotation Xrotation Yrotation
                      JOINT LeftHandIndex2
                      {
                        OFFSET 3.61937 0 0
                        CHANNELS 3 Zrotation Xrotation Yrotation
                        JOINT LeftHandIndex3
                        {
                          OFFSET 2.0521 0 0
                          CHANNELS 3 Zrotation Xrotation Yrotation
                          End Site
                          {
                            OFFSET 1.805 0 0
                          }
                        }
                      }
                    }
                  }
                  JOINT LeftInHandMiddle
                  {
                    OFFSET 3.38211 0.517263 0.756737
                    CHANNELS 3 Zrotation Xrotation Yrotation
                    JOINT LeftHandMiddle1
                    {
                      OFFSET 5.17411 -0.084 0.313895
                      CHANNELS 3 Zrotation Xrotation Yrotation
                      JOINT LeftHandMiddle2
                      {
                        OFFSET 3.94947 0 0
                        CHANNELS 3 Zrotation Xrotation Yrotation
                        JOINT LeftHandMiddle3
                        {
                          OFFSET 2.47579 0 0
                          CHANNELS 3 Zrotation Xrotation Yrotation
                          End Site
                          {
                            OFFSET 1.975 0 0
                          }
                        }
                      }
                    }
                  }
                  JOINT LeftInHandRing
                  {
                    OFFSET 3.36516 0.537895 -0.128947
                    CHANNELS 3 Zrotation Xrotation Yrotation
                    JOINT LeftHandRing1
                    {
                      OFFSET 4.63474 -0.022105 -0.478947
                      CHANNELS 3 Zrotation Xrotation Yrotation
                      JOINT LeftHandRing2
                      {
                        OFFSET 3.44238 0 0
                        CHANNELS 3 Zrotation Xrotation Yrotation
                        JOINT LeftHandRing3
                        {
                          OFFSET 2.3881 0 0
                          CHANNELS 3 Zrotation Xrotation Yrotation
                          End Site
                          {
                            OFFSET 1.857 0 0
                          }
                        }
                      }
                    }
                  }
                  JOINT LeftInHandPinky
                  {
                    OFFSET 3.16105 0.469368 -1.20179
                    CHANNELS 3 Zrotation Xrotation Yrotation
                    JOINT LeftHandPinky1
                    {
                      OFFSET 4.14105 -0.022105 -1.09053
                      CHANNELS 3 Zrotation Xrotation Yrotation
                      JOINT LeftHandPinky2
                      {
                        OFFSET 2.75653 0 0
                        CHANNELS 3 Zrotation Xrotation Yrotation
                        JOINT LeftHandPinky3
                        {
                          OFFSET 1.74189 0 0
                          CHANNELS 3 Zrotation Xrotation Yrotation
                          End Site
                          {
                            OFFSET 1.645 0 0
                          }
                        }
                      }
                    }
                  }
                }
              }
            }
          }
        }
      }
    }
  }
}
MOTION
Frames: 3
Frame Time: 0.00833333
1.046562633637176077e+03 8.865099228469647130e+01 2.091186862553095693e+01 1.884947847111413211e+01 -2.230183048170049531e+01 -1.764730160987383556e+02 2.854791325532107749e+01 -5.301151699545113161e+01 4.440025739447548148e+01 -4.211654036343086993e+00 2.685811875911120694e+01 1.897060504622426080e+01 9.452865233800295641e+00 -8.008872389646276346e+00 9.462903251023874418e+00 3.917304808444024644e+01 -3.110929302007231456e+01 4.932448279859995921e+01 1.508006335490318595e+00 3.624498153778895926e+01 1.789781898583610342e+01 -1.864360269031316619e+01 -1.072778539194477432e+01 9.578379785154968573e+00 -7.487728732859933345e+00 7.302032444859647420e+00 -6.906894709743149008e+00 -1.789961067717927179e+00 1.495028606768190826e+00 -1.823014938950961561e+00 -2.957426651189644318e+00 2.254601696311675063e+00 -2.894834336157317001e+00 -8.465748973523674614e-01 -2.256261812088229957e-01 2.026733620681372194e+00 -3.179527517020028782e+00 -1.485171125049169927e+00 2.224058311819037215e+01 -1.503721606520773157e+01 2.471123601618376409e+00 2.630464207340175875e+01 3.621757217661721651e+00 -5.587414219961486239e+00 -8.729601870454493096e+00 8.007336959883571126e+01 1.430409497558027354e+01 -3.191281596774288687e+00 5.453190053583918484e+01 -1.665374067516353307e+01 -2.878437144298486317e+01 -1.849928782785087478e+01 -1.393202157273028519e+01 7.032869582645211892e+00 2.818400000000000105e+01 1.072940000000000005e+01 1.915919999999999845e+01 3.298008065593171804e-15 -1.060279121014019463e-15 -1.000000000000000000e+01 1.859406354057395469e-15 -2.175378833099464151e-15 -1.000000000000000000e+01 -4.703750085307597325e-15 1.117715193281079211e-15 2.322544283852521040e-15 1.998179999999999978e+01 8.718970000000000331e-01 2.396399999999999864e+00 2.400000000000000000e+01 -1.842249222897903068e-15 1.230649572038882863e-15 2.000000000000000000e+01 -2.022878757358040214e-15 2.113115107320554263e-15 -4.703750085307597325e-15 1.117715193281079211e-15 2.322544283852521040e-15 2.000000000000000000e+01 -4.555874458833298978e-16 3.420539027329342506e-15 2.400000000000000000e+01 -1.087088386206744957e-16 5.785635432709658235e-16 2.000000000000000000e+01 3.983053994302160209e-16 6.331162031896723497e-15 -4.703750085307597325e-15 1.117715193281079211e-15 2.322544283852521040e-15 1.997479999999999833e+01 -1.025649999999999951e+00 -2.819380000000000219e+00 2.400000000000000000e+01 -8.605472934417563927e-16 1.585345294226790168e-15 2.000000000000000000e+01 9.488520820111549722e-16 3.700932814499968934e-15 -4.703750085307597325e-15 1.117715193281079211e-15 2.322544283852521040e-15 1.978150000000000119e+01 -3.009479999999999933e+00 -8.305149999999999366e+00 2.400000000000000000e+01 -2.784277623911529710e-15 4.972012879098862475e-16 2.000000000000000000e+01 2.969791198310541037e-15 1.284300452630304972e-14 -3.123498275398004509e-01 -1.603190778574885300e+01 -2.099942198868538412e+01 3.894006537876428808e+00 4.018489971952949702e+01 -1.207415120858914008e+02 2.904258053006271467e+01 -2.193800555460757451e+01 3.459940515079590995e+00 -6.039607851557344986e+01 -1.170167639938622983e+01 -2.412969289935735873e+01 -2.818400000000000105e+01 1.072940000000000005e+01 -1.915919999999999845e+01 2.508000875724550962e-15 -1.406453074169197180e-15 1.000000000000000000e+01 1.737847631205088236e-15 -5.718022976050728441e-16 1.000000000000000000e+01 1.046841490629129386e-15 -3.463502646928850595e-16 -3.830206110731536041e-16 -1.998179999999999978e+01 8.718970000000000331e-01 -2.396399999999999864e+00 -2.400000000000000000e+01 -1.854831602080635937e-15 -4.482880313870552271e-15 -2.000000000000000000e+01 1.303315919568966194e-15 1.990174866906106920e-15 1.046841490629129386e-15 -3.463502646928850595e-16 -3.830206110731536041e-16 -2.000000000000000000e+01 1.133497193506628020e-15 -1.028759367485134796e-15 -2.400000000000000000e+01 1.983384571269952719e-15 2.796165908712458881e-15 -2.000000000000000000e+01 -8.974688901746537747e-16 -4.435936303226965626e-15 1.046841490629129386e-15 -3.463502646928850595e-16 -3.830206110731536041e-16 -1.997479999999999833e+01 -1.025649999999999951e+00 2.819380000000000219e+00 -2.400000000000000000e+01 1.091570692264271578e-15 -1.475311256977120979e-15 -2.000000000000000000e+01 7.200323660721392346e-16 -1.639974914356797927e-15 1.046841490629129386e-15 -3.463502646928850595e-16 -3.830206110731536041e-16 -1.978150000000000119e+01 -3.009479999999999933e+00 8.305149999999999366e+00 -2.400000000000000000e+01 8.667426068038936388e-16 -8.795438171403458816e-16 -2.000000000000000000e+01 1.434500106929261422e-15 3.155583353314942698e-15
1.046490848803567133e+03 8.866634002863143849e+01 2.091276828407056598e+01 1.881893866710245078e+01 -2.219280333138059547e+01 -1.761138140812392692e+02 2.824829529890119062e+01 -5.281718264922788819e+01 4.414279936374263968e+01 -4.201042652039607361e+00 2.686447908964886722e+01 1.892273047246460393e+01 9.472460394929335337e+00 -8.130295729540653937e+00 9.322325882815695408e+00 3.895865038796058144e+01 -3.115288016070525856e+01 4.910645844205793509e+01 1.559269529849405700e+00 3.620732368276879498e+01 1.777473393551295544e+01 -1.859169128099359369e+01 -1.068899450103769233e+01 9.536727286975221318e+00 -7.448508390032809956e+00 7.336361915096363262e+00 -6.788286234600398927e+00 -1.779027665002198777e+00 1.503106107809954350e+00 -1.792663610096637328e+00 -2.939059203838951362e+00 2.264342373021828614e+00 -2.846586018977297350e+00 -8.401974918187896657e-01 -2.183703639994617474e-01 2.011321973001946262e+00 -3.154511522401491685e+00 -1.469084935393941693e+00 2.209684728257910535e+01 -1.491459419809259401e+01 2.566790249895376519e+00 2.608847586821456588e+01 3.613498880995410723e+00 -5.625127299703257755e+00 -8.757611814954557872e+00 7.984559119311009567e+01 1.435036385779788581e+01 -2.862340673759149468e+00 5.450118791960075981e+01 -1.675972415656336878e+01 -2.840922343484317025e+01 -1.850805785953082250e+01 -1.396159303453858236e+01 6.980976411670755333e+00 2.818400000000000105e+01 1.072940000000000005e+01 1.915919999999999845e+01 3.365635517032652389e-15 -1.089689806009559139e-15 -1.000000000000000000e+01 1.886156359680506334e-15 -2.169709763134042961e-15 -1.000000000000000000e+01 -4.715702937311186490e-15 1.104703453529519248e-15 2.286591945131009672e-15 1.998179999999999978e+01 8.718970000000000331e-01 2.396399999999999864e+00 2.400000000000000000e+01 -1.854164961305217732e-15 1.225706606785680703e-15 2.000000000000000000e+01 -2.044765643712008546e-15 2.028477050602251044e-15 -4.715702937311186490e-15 1.104703453529519248e-15 2.286591945131009672e-15 2.000000000000000000e+01 -4.439126525610099747e-16 3.428044356456699494e-15 2.400000000000000000e+01 -1.354666386868935179e-16 5.654703992763976361e-16 2.000000000000000000e+01 3.836726052551315251e-16 6.266920014387417634e-15 -4.715702937311186490e-15 1.104703453529519248e-15 2.286591945131009672e-15 1.997479999999999833e+01 -1.025649999999999951e+00 -2.819380000000000219e+00 2.400000000000000000e+01 -8.621063823957650289e-16 1.575201632861497225e-15 2.000000000000000000e+01 9.614811652328281382e-16 3.662188175396040506e-15 -4.715702937311186490e-15 1.104703453529519248e-15 2.286591945131009672e-15 1.978150000000000119e+01 -3.009479999999999933e+00 -8.305149999999999366e+00 2.400000000000000000e+01 -2.753344576880461631e-15 5.116080546053415664e-16 2.000000000000000000e+01 2.978648058126697480e-15 1.278974346846591048e-14 -2.413583880212906152e-01 -1.596184648488368829e+01 -2.093265005712784443e+01 3.455180448620158273e+00 4.014392276912779067e+01 -1.203131641413231705e+02 2.793989071084754272e+01 -2.213876381965233264e+01 2.282885815263650642e+00 -6.049748158842920276e+01 -1.171144885716419282e+01 -2.400950034342548634e+01 -2.818400000000000105e+01 1.072940000000000005e+01 -1.915919999999999845e+01 2.495922537507272977e-15 -1.380035446546258556e-15 1.000000000000000000e+01 1.753745281259917965e-15 -5.630752574731264049e-16 1.000000000000000000e+01 1.035844402365566152e-15 -3.374092531089174242e-16 -3.771330984357675243e-16 -1.998179999999999978e+01 8.718970000000000331e-01 -2.396399999999999864e+00 -2.400000000000000000e+01 -1.861468497472020018e-15 -4.493727582103000814e-15 -2.000000000000000000e+01 1.305743229349584779e-15 1.971095671886002353e-15 1.035844402365566152e-15 -3.374092531089174242e-16 -3.771330984357675243e-16 -2.000000000000000000e+01 1.159915303297068194e-15 -9.973718612285900524e-16 -2.400000000000000000e+01 2.000205002087746347e-15 2.838103845265892477e-15 -2.000000000000000000e+01 -8.786607224207185239e-16 -4.447606474330152517e-15 1.035844402365566152e-15 -3.374092531089174242e-16 -3.771330984357675243e-16 -1.997479999999999833e+01 -1.025649999999999951e+00 2.819380000000000219e+00 -2.400000000000000000e+01 1.097436475436843149e-15 -1.511293704717821174e-15 -2.000000000000000000e+01 7.029854248813407710e-16 -1.685772407860663792e-15 1.035844402365566152e-15 -3.374092531089174242e-16 -3.771330984357675243e-16 -1.978150000000000119e+01 -3.009479999999999933e+00 8.305149999999999366e+00 -2.400000000000000000e+01 8.451992047626457096e-16 -8.545459305065698851e-16 -2.000000000000000000e+01 1.456667439391097328e-15 3.184047042502287183e-15
1.046417546011044351e+03 8.868209948497168682e+01 2.091529650643979465e+01 1.878806024762699423e+01 -2.208236006595227963e+01 -1.757412392501028364e+02 2.794260790390769245e+01 -5.261658721197054689e+01 4.388080750330995272e+01 -4.189598869265317660e+00 2.686835905235252042e+01 1.887272042973419772e+01 9.492238938262467229e+00 -8.247228496676665799e+00 9.178191095762203489e+00 3.873871891038083248e+01 -3.119599477573622437e+01 4.888342329592504143e+01 1.610373497697584533e+00 3.616557186172575911e+01 1.764900703665593795e+01 -1.853784551718344176e+01 -1.064721862564507582e+01 9.491174384071880965e+00 -7.409027407336207460e+00 7.370087824345578298e+00 -6.665198517704116199e+00 -1.768027323191642353e+00 1.511143763368841597e+00 -1.761180654622653385e+00 -2.920583671326208552e+00 2.274079590236872672e+00 -2.796553510033214618e+00 -8.336017535048392268e-01 -2.111171981797442809e-01 1.995352301333712663e+00 -3.128902936075464325e+00 -1.452807636833841398e+00 2.194899652514563471e+01 -1.478773216370119847e+01 2.661983700132847019e+00 2.586382903950709533e+01 3.604501929118835157e+00 -5.663541023011284814e+00 -8.782541776673927103e+00 7.960440533307983912e+01 1.439484174776693948e+01 -2.521185873702222580e+00 5.445814431902020658e+01 -1.687107391910778631e+01 -2.801900183953944179e+01 -1.851229411228960942e+01 -1.398916372089807325e+01 6.927161787104330060e+00 2.818400000000000105e+01 1.072940000000000005e+01 1.915919999999999845e+01 3.432608151309201365e-15 -1.118416719260057481e-15 -1.000000000000000000e+01 1.912521218350389237e-15 -2.163479779316236118e-15 -1.000000000000000000e+01 -4.727100583167729864e-15 1.091917747065089754e-15 2.250425752238721914e-15 1.998179999999999978e+01 8.718970000000000331e-01 2.396399999999999864e+00 2.400000000000000000e+01 -1.866045603207803103e-15 1.219948605000701976e-15 2.000000000000000000e+01 -2.065667108582310482e-15 1.944328500587214703e-15 -4.727100583167729864e-15 1.091917747065089754e-15 2.250425752238721914e-15 2.000000000000000000e+01 -4.320203009133460279e-16 3.434771007197444839e-15 2.400000000000000000e+01 -1.621261748728950155e-16 5.528279255945991059e-16 2.000000000000000000e+01 3.696173259800574850e-16 6.201758359870756501e-15 -4.727100583167729864e-15 1.091917747065089754e-15 2.250425752238721914e-15 1.997479999999999833e+01 -1.025649999999999951e+00 -2.819380000000000219e+00 2.400000000000000000e+01 -8.632342952619872569e-16 1.564182233578398989e-15 2.000000000000000000e+01 9.740763582199490820e-16 3.623104878854627562e-15 -4.727100583167729864e-15 1.091917747065089754e-15 2.250425752238721914e-15 1.978150000000000119e+01 -3.009479999999999933e+00 -8.305149999999999366e+00 2.400000000000000000e+01 -2.722438571522409230e-15 5.248628151536905152e-16 2.000000000000000000e+01 2.986739288310532318e-15 1.273428453677896880e-14 -1.705601430472687419e-01 -1.589111656499835590e+01 -2.086384896900599273e+01 3.011158395343723981e+00 4.009749109403688294e+01 -1.198764126344603369e+02 2.684476494829247173e+01 -2.234344858651297017e+01 1.104118819886565461e+00 -6.058874140983377998e+01 -1.172740097479949384e+01 -2.388831219773408776e+01 -2.818400000000000105e+01 1.072940000000000005e+01 -1.915919999999999845e+01 2.483411571348549011e-15 -1.353972532094623439e-15 1.000000000000000000e+01 1.768821945236083055e-15 -5.548091366579659196e-16 1.000000000000000000e+01 1.024732938399313513e-15 -3.286078893333521028e-16 -3.712343759934477612e-16 -1.998179999999999978e+01 8.718970000000000331e-01 -2.396399999999999864e+00 -2.400000000000000000e+01 -1.867178968467039231e-15 -4.503655832963641815e-15 -2.000000000000000000e+01 1.307424574163261369e-15 1.951541897653156367e-15 1.024732938399313513e-15 -3.286078893333521028e-16 -3.712343759934477612e-16 -2.000000000000000000e+01 1.185720506113837455e-15 -9.658095349284573114e-16 -2.400000000000000000e+01 2.016083972235371767e-15 2.878671125080977055e-15 -2.000000000000000000e+01 -8.596356582694552176e-16 -4.458360934231097238e-15 1.024732938399313513e-15 -3.286078893333521028e-16 -3.712343759934477612e-16 -1.997479999999999833e+01 -1.025649999999999951e+00 2.819380000000000219e+00 -2.400000000000000000e+01 1.102424233856607552e-15 -1.546391844376041722e-15 -2.000000000000000000e+01 6.857537300932262696e-16 -1.730820301322782412e-15 1.024732938399313513e-15 -3.286078893333521028e-16 -3.712343759934477612e-16 -1.978150000000000119e+01 -3.009479999999999933e+00 8.305149999999999366e+00 -2.400000000000000000e+01 8.241501782493880396e-16 -8.294670972057588036e-16 -2.000000000000000000e+01 1.478194817275323722e-15 3.210889187606143745e-15
